<?xml version="1.0" encoding="utf-8"?>
<!-- Generator: Adobe Illustrator 19.0.0, SVG Export Plug-In . SVG Version: 6.00 Build 0)  -->
<svg version="1.1" id="Layer_1" xmlns="http://www.w3.org/2000/svg" xmlns:xlink="http://www.w3.org/1999/xlink" x="0px" y="0px"
	 viewBox="0 0 100 100" style="enable-background:new 0 0 100 100;" xml:space="preserve">
<style type="text/css">
	.st0{fill:#FFFFFF;}
	.st1{display:none;}
	.st2{display:inline;fill:#757575;}
</style>
<g id="XMLID_1_">
	<path id="XMLID_2_" class="st0" d="M37,72.5c0,2.9,0.8,5.1,2.5,6.4c1.7,1.3,4.1,2,7.4,2.1v6c-5.5-0.1-9.7-1.3-12.7-3.7
		s-4.5-5.9-4.5-10.3V59.8c0-3-0.9-5.1-2.7-6.4c-1.8-1.3-4.4-1.9-7.9-1.9v-6.1c3.7-0.1,6.4-0.7,8.1-2.1c1.7-1.3,2.5-3.4,2.5-6.1V24.1
		c0-4.5,1.6-7.9,4.7-10.4c3.1-2.5,7.3-3.7,12.5-3.7v6c-6.6,0.2-9.9,3-9.9,8.6v12.7c0,6.2-3.2,9.8-9.6,10.9v0.5
		c6.4,1.1,9.6,4.8,9.6,10.9V72.5z"/>
	<path id="XMLID_4_" class="st0" d="M72.5,48.2c-6.4-1.1-9.6-4.8-9.6-10.9V24.6c0-5.5-3.3-8.4-9.8-8.6v-6c5.3,0,9.4,1.2,12.5,3.7
		c3,2.5,4.5,5.9,4.5,10.3v13.2c0,2.8,0.8,4.8,2.5,6.1c1.7,1.3,4.4,2,8.1,2v6.1c-3.5,0-6.2,0.6-8,1.9c-1.8,1.3-2.7,3.4-2.7,6.4v13.1
		c0,4.4-1.5,7.8-4.4,10.3s-7.1,3.7-12.6,3.8v-6c3.2-0.1,5.6-0.7,7.3-2.1c1.7-1.3,2.5-3.4,2.5-6.4V59.7c0-3.3,0.8-5.8,2.4-7.5
		c1.6-1.7,4-2.9,7.2-3.4V48.2z"/>
</g>
<image style="display:none;overflow:visible;" width="141" height="122" id="XMLID_8_" xlink:href="AE4A6C28.jpg"  transform="matrix(6.000012e-002 0 0 6.000012e-002 40 39)">
</image>
<g id="XMLID_10_" class="st1">
	<path id="XMLID_11_" class="st2" d="M19.5,90.6c3.6-11.1,7.1-9.2,8.4-9.2s5.1-0.7,9.4-3.6c4.3-3,4.8-10.2,4.8-10.2l-9.9-10
		C11.3,65.7,19.5,90.6,19.5,90.6z"/>
	<path id="XMLID_12_" class="st2" d="M80.6,15.7c-3.1-1.7-3-2.5-8.6,2.4c-0.4,0.3-0.6,0.6-0.9,0.9L35.3,54.5l9.8,10.3l33.8-42.5
		C78.9,22.4,83.7,17.4,80.6,15.7z"/>
</g>
</svg>
