<?xml version="1.0" encoding="utf-8"?>
<!-- Generator: Adobe Illustrator 19.0.0, SVG Export Plug-In . SVG Version: 6.00 Build 0)  -->
<svg version="1.1" id="Layer_1" xmlns="http://www.w3.org/2000/svg" xmlns:xlink="http://www.w3.org/1999/xlink" x="0px" y="0px"
	 viewBox="92 -91.5 283.5 283.5" style="enable-background:new 92 -91.5 283.5 283.5;" xml:space="preserve">
<style type="text/css">
	.st0{fill:#22A7F0;}
</style>
<path class="st0" d="M218.4,62.5l-10,9.4c-14.9,14.3-37.5,19.1-57.5,10.4c-26.7-11.5-39-42.6-27.4-69.3s42.6-39,69.3-27.4
	c11.5,5,20.3,13.6,25.7,23.9v-35c-5-3.9-10.5-7.3-16.6-9.9c-38.4-16.5-83,1.2-99.5,39.4c-16.6,38.2,1.1,82.8,39.3,99.4
	c26.3,11.4,55.6,6.6,76.7-9.9V62.5z"/>
<path class="st0" d="M330,20.2c-26.3-11.4-55.6-6.6-76.7,9.9v31l0,0l1.1-1l9.7-9.1l-0.1-0.1c14.9-13.8,37.1-18.4,56.9-9.8
	c26.7,11.5,39,42.6,27.4,69.3c-11.5,26.7-42.6,39-69.3,27.4c-20.1-8.7-32.1-28.6-31.7-49.2V-74.6h-22.9V89.8l0,0l0,0
	c0.2,29.1,17.2,56.7,45.5,69c38.2,16.6,82.8-1.1,99.4-39.3C385.8,81.4,368.2,36.8,330,20.2z"/>
</svg>
