<?xml version="1.0" encoding="utf-8"?>
<!-- Generator: Adobe Illustrator 19.0.0, SVG Export Plug-In . SVG Version: 6.00 Build 0)  -->
<svg version="1.1" xmlns="http://www.w3.org/2000/svg" xmlns:xlink="http://www.w3.org/1999/xlink" x="0px" y="0px"
	 viewBox="0 0 100 100" style="enable-background:new 0 0 100 100;" xml:space="preserve">
<style type="text/css">
	.st0{display:none;}
	.st1{display:inline;fill:#7F7F7F;}
	.st2{display:inline;}
	.st3{fill:#9E9E9E;}
	.st4{display:inline;fill:#6D6D6D;}
	.st5{display:inline;fill:#B2B2B2;}
	.st6{display:none;fill:#7F7F7F;}
	.st7{fill:#FFFFFF;}
</style>
<g id="Layer_1" class="st0">
	<path id="XMLID_9_" class="st1" d="M75,12.6c0-1.5-1.2-2.6-2.7-2.6H27c-1.5,0-3,1.2-3,2.6v73.7c0,1.5,1.5,2.6,3,2.6h45.3
		c1.5,0,2.7-1.2,2.7-2.6V12.6z M48.6,12c0.4,0,0.7,0.3,0.7,0.7c0,0.4-0.3,0.7-0.7,0.7c-0.4,0-0.7-0.3-0.7-0.7
		C47.9,12.3,48.2,12,48.6,12z M45.4,15h6.3c0.4,0,0.8,0.1,0.8,0.5S52.1,16,51.7,16h-6.3c-0.4,0-0.8-0.1-0.8-0.5S45,15,45.4,15z
		 M48.3,86.5c-1.6,0-3-1.3-3-2.9c0-1.6,1.3-2.9,3-2.9s3,1.3,3,2.9C51.3,85.2,50,86.5,48.3,86.5z M70,79H26V17h44V79z"/>
	<g id="XMLID_1_" class="st2">
		<path id="XMLID_22_" class="st3" d="M17.5,51.7c-0.5,0-1.1,0-1.6,0c-0.6,0.1-1-0.1-1.4-0.6c-1-1-2-2-3-3c-0.1-0.1-0.1-0.1-0.2-0.2
			c0.1-0.1,0.1-0.1,0.2-0.2c1.2-1.2,2.3-2.3,3.5-3.5c0.1-0.1,0.2-0.1,0.4-0.2c0.7,0,1.3,0,2,0c0.1,0,0.1,0,0.2,0
			c-0.9,0.9-1.9,1.9-2.8,2.8c0,0,0,0,0,0.1c1.8,0,3.7,0,5.5,0c0,0.6,0,1.2,0,1.8c-1.8,0-3.7,0-5.5,0C15.7,49.8,16.6,50.7,17.5,51.7
			C17.5,51.6,17.5,51.6,17.5,51.7z"/>
	</g>
	<g id="XMLID_2_" class="st2">
		<path id="XMLID_3_" class="st3" d="M81.9,44.2c0.5,0,1.1,0,1.6,0c0.6-0.1,1,0.1,1.4,0.6c1,1,2,2,3,3c0.1,0.1,0.1,0.1,0.2,0.2
			C88.1,48,88,48,88,48.1c-1.2,1.2-2.3,2.3-3.5,3.5c-0.1,0.1-0.2,0.1-0.4,0.2c-0.7,0-1.3,0-2,0c-0.1,0-0.1,0-0.2,0
			c0.9-0.9,1.9-1.9,2.8-2.8c0,0,0,0,0-0.1c-1.8,0-3.7,0-5.5,0c0-0.6,0-1.2,0-1.8c1.8,0,3.7,0,5.5,0C83.7,46.1,82.8,45.1,81.9,44.2
			C81.9,44.2,81.9,44.2,81.9,44.2z"/>
	</g>
	<path id="XMLID_4_" class="st4" d="M73.6,88.3h-48c-1,0-1.8-0.8-1.8-1.8V11c0-1,0.8-1.8,1.8-1.8h48c1,0,1.8,0.8,1.8,1.8v75.4
		C75.4,87.4,74.6,88.3,73.6,88.3z"/>
	<path id="XMLID_5_" class="st5" d="M53.7,16.2h-8c-0.4,0-0.7-0.3-0.7-0.7v0c0-0.4,0.3-0.7,0.7-0.7h8c0.4,0,0.7,0.3,0.7,0.7v0
		C54.4,15.9,54,16.2,53.7,16.2z"/>
	<circle id="XMLID_6_" class="st5" cx="49.5" cy="12.6" r="0.8"/>
	<circle id="XMLID_13_" class="st5" cx="49.4" cy="82.7" r="2.3"/>
	<rect id="XMLID_14_" x="28.4" y="19" class="st5" width="42.4" height="60"/>
</g>
<g id="Layer_1_copy">
	<path id="XMLID_25_" class="st6" d="M75,12.6c0-1.5-1.2-2.6-2.7-2.6H27c-1.5,0-3,1.2-3,2.6v73.7c0,1.5,1.5,2.6,3,2.6h45.3
		c1.5,0,2.7-1.2,2.7-2.6V12.6z M48.6,12c0.4,0,0.7,0.3,0.7,0.7c0,0.4-0.3,0.7-0.7,0.7c-0.4,0-0.7-0.3-0.7-0.7
		C47.9,12.3,48.2,12,48.6,12z M45.4,15h6.3c0.4,0,0.8,0.1,0.8,0.5S52.1,16,51.7,16h-6.3c-0.4,0-0.8-0.1-0.8-0.5S45,15,45.4,15z
		 M48.3,86.5c-1.6,0-3-1.3-3-2.9c0-1.6,1.3-2.9,3-2.9s3,1.3,3,2.9C51.3,85.2,50,86.5,48.3,86.5z M70,79H26V17h44V79z"/>
	<g id="XMLID_23_">
		<path id="XMLID_24_" class="st7" d="M17.5,51.7c-0.5,0-1.1,0-1.6,0c-0.6,0.1-1-0.1-1.4-0.6c-1-1-2-2-3-3c-0.1-0.1-0.1-0.1-0.2-0.2
			c0.1-0.1,0.1-0.1,0.2-0.2c1.2-1.2,2.3-2.3,3.5-3.5c0.1-0.1,0.2-0.1,0.4-0.2c0.7,0,1.3,0,2,0c0.1,0,0.1,0,0.2,0
			c-0.9,0.9-1.9,1.9-2.8,2.8c0,0,0,0,0,0.1c1.8,0,3.7,0,5.5,0c0,0.6,0,1.2,0,1.8c-1.8,0-3.7,0-5.5,0C15.7,49.8,16.6,50.7,17.5,51.7
			C17.5,51.6,17.5,51.6,17.5,51.7z"/>
	</g>
	<g id="XMLID_20_">
		<path id="XMLID_21_" class="st7" d="M81.9,44.2c0.5,0,1.1,0,1.6,0c0.6-0.1,1,0.1,1.4,0.6c1,1,2,2,3,3c0.1,0.1,0.1,0.1,0.2,0.2
			C88.1,48,88,48,88,48.1c-1.2,1.2-2.3,2.3-3.5,3.5c-0.1,0.1-0.2,0.1-0.4,0.2c-0.7,0-1.3,0-2,0c-0.1,0-0.1,0-0.2,0
			c0.9-0.9,1.9-1.9,2.8-2.8c0,0,0,0,0-0.1c-1.8,0-3.7,0-5.5,0c0-0.6,0-1.2,0-1.8c1.8,0,3.7,0,5.5,0C83.7,46.1,82.8,45.1,81.9,44.2
			C81.9,44.2,81.9,44.2,81.9,44.2z"/>
	</g>
	<path id="XMLID_19_" class="st7" d="M74.2,9H25.8c-1,0-1.8,0.8-1.8,1.8v75.4c0,1,0.8,1.8,1.8,1.8h48.4c1,0,1.8-0.8,1.8-1.8V10.8
		C76,9.8,75.2,9,74.2,9z M49.5,11.8c0.4,0,0.8,0.3,0.8,0.8c0,0.4-0.3,0.8-0.8,0.8s-0.8-0.3-0.8-0.8C48.8,12.1,49.1,11.8,49.5,11.8z
		 M45.6,15h8c0.4,0,0.7,0.1,0.7,0.5S54,16,53.7,16h-8c-0.4,0-0.7-0.1-0.7-0.5S45.2,15,45.6,15z M71,79H28V19h43V79z"/>
</g>
</svg>
